<svg width="384" height="90" viewBox="0 0 384 90" fill="none" xmlns="http://www.w3.org/2000/svg">
<path d="M60.869 27.412C53.0119 27.087 44.8768 27.1083 36.9341 27.3906C42.1095 21.4026 47.3019 15.6071 52.3661 10.0682C52.52 9.93987 52.5842 9.7474 52.5842 9.55065C52.5842 9.12293 52.2377 8.78076 51.81 8.78076C51.5962 8.78076 51.3823 8.8663 51.254 9.03739C45.5012 15.2606 40.0265 21.424 34.834 27.4762C26.2027 27.8397 17.7682 28.5284 10.1677 29.4907C9.78277 29.5335 9.48337 29.8799 9.48337 30.2649C9.48337 30.6926 9.82554 31.039 10.2575 31.039H10.3645C17.4688 30.1152 25.343 29.4479 33.4782 29.0844C21.3952 43.3145 9.69723 58.447 0.488529 73.0235C0.317443 73.2802 0.167743 73.5582 0.0822003 73.7934V73.8148C-0.153043 74.5248 0.124972 74.9739 0.809315 74.9739C1.30546 74.9739 1.92565 74.3965 2.5715 73.3229C2.74259 73.0021 2.78536 72.6985 2.65704 72.506C11.9299 58.0407 23.5851 43.0578 35.5825 28.9988C44.1454 28.6353 52.7339 28.6353 60.8049 28.9561H60.8476C61.2753 28.9561 61.6175 28.6139 61.6175 28.1819C61.6175 27.7756 61.2967 27.4334 60.869 27.412Z" fill="#F5F5F5"/>
<path d="M68.8085 41.3644C68.6802 41.3644 68.5518 41.4072 68.4021 41.4714C63.3765 44.7092 54.0865 49.2173 49.8778 49.2173C48.5476 49.2173 47.9659 48.7682 47.9659 47.7588C47.9659 46.9632 48.3765 45.9538 48.8256 44.7947C49.2747 43.6613 49.7923 42.4123 49.7923 41.3858C49.7923 40.3978 49.1892 39.752 48.2268 39.752C46.1866 39.752 42.4099 42.391 36.6144 47.8657C34.9164 49.4739 33.3081 51.0436 32.0635 52.2669C31.7641 52.5663 31.546 52.5449 31.8496 52.0958C33.2226 49.8417 35.5622 46.6211 38.6931 42.6519C59.4928 29.5125 79.0693 7.34401 79.0693 2.31836C79.0693 1.18064 78.3807 0.539062 77.1788 0.539062C71.687 0.539062 28.9283 48.9393 28.9283 55.1197C28.9283 55.6801 29.3561 56.1078 29.9164 56.1078C30.3655 56.1078 30.7975 55.7014 33.1371 53.3618C33.3937 53.1052 33.6717 52.8443 33.9711 52.5663C35.0661 51.4927 36.3321 50.2695 37.6879 48.982C42.4099 44.5167 45.9942 41.7922 47.7948 41.3644C48.0729 41.3003 48.2482 41.4714 48.2055 41.7708C48.0942 42.4808 47.7735 43.2934 47.4099 44.1959C46.9565 45.355 46.4219 46.6638 46.4219 47.7588C46.4219 49.6493 47.7093 50.7656 49.8778 50.7656C54.4287 50.7656 64.1079 46.0864 69.2362 42.7802C69.4543 42.6305 69.5826 42.391 69.5826 42.1343C69.5826 41.728 69.2148 41.3644 68.8085 41.3644ZM77.1788 2.08311C77.4355 2.08311 77.5253 2.16866 77.5253 2.38251C77.5253 6.44153 60.8658 25.5647 41.8496 38.7212C56.4689 20.8213 74.5185 2.08311 77.1788 2.08311Z" fill="#F5F5F5"/>
<path d="M88.7484 41.3643C88.5773 41.3643 88.4276 41.4071 88.2993 41.514C81.6226 46.3857 72.6278 49.0247 69.8391 49.0247C67.6706 49.0247 66.597 48.4473 66.597 47.3737C66.597 46.3215 67.3712 44.8416 68.6586 43.4216C69.3002 43.7039 70.0102 43.8108 71.041 43.8108C73.0127 43.8108 75.2882 42.2197 75.2882 40.804C75.2882 39.7732 74.4969 39.0889 73.295 39.0889C69.946 39.0889 65.053 44.0033 65.053 47.3737C65.053 49.4096 66.7895 50.5687 69.8391 50.5687C72.8417 50.5687 82.307 47.8014 89.1975 42.7587C89.3899 42.6303 89.5225 42.3694 89.5225 42.1342C89.5225 41.7065 89.1761 41.3643 88.7484 41.3643ZM73.7441 40.804C73.7441 41.2745 72.6492 42.2625 71.041 42.2625C70.5876 42.2625 70.2454 42.2411 69.946 42.1984C71.1693 41.2103 72.3926 40.6329 73.295 40.6329C73.68 40.6329 73.7441 40.6971 73.7441 40.804Z" fill="#F5F5F5"/>
<path d="M115.061 41.3429C114.911 41.3429 114.74 41.3857 114.633 41.4712C108.192 45.8681 99.7999 48.8108 96.3654 48.8108C94.7999 48.8108 94.2011 48.3617 94.2011 47.2668C94.2011 46.5354 94.9069 45.0127 96.3012 42.7586C96.4295 42.9725 96.6691 43.1008 96.9471 43.1008C97.3534 43.1008 97.6999 42.78 97.7212 42.3694C97.764 41.8775 97.6999 41.3857 97.4817 40.9109C98.0206 40.141 98.5981 39.2813 99.2225 38.4002C113.709 24.9016 133.735 4.14456 133.735 1.48417C133.735 0.53892 133.179 0 132.127 0C128.5 0 108.431 22.9469 98.4056 37.0273L98.4484 37.0059C97.5459 37.8442 96.6904 38.6355 95.8949 39.3882C95.403 39.1958 94.8855 39.0888 94.3081 39.0888C89.8641 39.0888 82.9736 44.8844 82.9736 48.6611C82.9736 49.6064 83.6152 50.1838 84.646 50.1838C85.634 50.1838 88.7692 47.8228 93.8547 43.3147C94.1798 43.0153 94.3722 43.1436 94.1541 43.5285C93.149 45.2907 92.6528 46.5567 92.6528 47.2668C92.6528 49.2599 93.9616 50.3549 96.3654 50.3549C100.061 50.3549 108.816 47.3095 115.471 42.78C115.707 42.6089 115.835 42.3694 115.835 42.1128C115.835 41.6851 115.493 41.3429 115.061 41.3429ZM132.127 1.54833C132.212 1.54833 132.234 1.5911 132.234 1.65526C132.234 3.28485 113.239 22.7117 105.039 30.6928C116.263 16.3558 130.001 1.54833 132.127 1.54833ZM84.7315 48.6397C84.6246 48.6397 84.5177 48.6183 84.5177 48.4472C84.5177 45.7612 90.7452 40.6329 94.3081 40.6329H94.5219C88.9189 45.7612 85.356 48.6397 84.7315 48.6397Z" fill="#F5F5F5"/>
<path d="M135.002 41.3643C134.831 41.3643 134.681 41.4071 134.553 41.514C127.876 46.3857 118.881 49.0247 116.092 49.0247C113.924 49.0247 112.85 48.4473 112.85 47.3737C112.85 46.3215 113.624 44.8416 114.912 43.4216C115.553 43.7039 116.263 43.8108 117.294 43.8108C119.266 43.8108 121.541 42.2197 121.541 40.804C121.541 39.7732 120.75 39.0889 119.548 39.0889C116.199 39.0889 111.306 44.0033 111.306 47.3737C111.306 49.4096 113.043 50.5687 116.092 50.5687C119.095 50.5687 128.56 47.8014 135.451 42.7587C135.643 42.6303 135.776 42.3694 135.776 42.1342C135.776 41.7065 135.429 41.3643 135.002 41.3643ZM119.997 40.804C119.997 41.2745 118.902 42.2625 117.294 42.2625C116.841 42.2625 116.499 42.2411 116.199 42.1984C117.423 41.2103 118.646 40.6329 119.548 40.6329C119.933 40.6329 119.997 40.6971 119.997 40.804Z" fill="#F5F5F5"/>
<path d="M160.566 41.3645C160.459 41.3645 160.373 41.3859 160.305 41.4073C157.388 42.391 153.953 43.379 150.583 44.3671C147.901 45.1198 145.262 45.9111 143.008 46.6211C143.051 46.4714 143.072 46.3003 143.094 46.172C143.179 45.2054 142.427 44.6451 141.118 44.6451C140.322 44.6451 139.249 44.8204 138.222 44.9915C137.106 45.184 136.032 45.3551 135.172 45.3551C134.42 45.3551 134.163 45.2481 134.163 44.9274C134.163 43.0369 139.184 39.2388 141.913 39.2388C142.148 39.2388 142.341 39.3029 142.341 39.474C142.341 40.03 141.588 41.0608 140.861 41.4928C140.626 41.6211 140.476 41.8778 140.476 42.1558C140.476 42.5878 140.818 42.9299 141.246 42.9299C141.374 42.9299 141.524 42.8872 141.657 42.823C142.619 42.2413 143.543 40.9967 143.842 39.8376C143.864 39.7306 143.885 39.5382 143.885 39.3885C143.885 38.3577 143.115 37.6904 141.913 37.6904C138.265 37.6904 132.619 42.1558 132.619 45.0771C132.619 46.2576 133.543 46.8991 135.172 46.8991C136.139 46.8991 137.362 46.7067 138.479 46.5142C139.894 46.2789 141.417 45.9111 141.588 46.2148C141.678 46.3645 141.396 46.8136 141.118 47.2242L140.989 47.3097C134.723 49.4996 130.515 51.882 130.515 53.4902C130.515 54.3927 131.225 54.9487 132.405 54.9487C135.686 54.9487 139.959 51.4714 141.956 48.6613C141.977 48.6185 142.02 48.5972 142.084 48.5544C144.616 47.7161 147.752 46.8136 151.015 45.8469C154.381 44.8632 157.858 43.8538 160.801 42.8658C161.122 42.7802 161.336 42.4808 161.336 42.1344C161.336 41.7067 160.994 41.3645 160.566 41.3645ZM132.705 53.4047C132.491 53.4047 132.384 53.3405 132.384 53.255C132.384 53.148 132.491 53.0197 132.662 52.9085C133.821 52.0959 136.503 50.7229 139.249 49.5852C136.977 51.882 134.291 53.4047 132.705 53.4047Z" fill="#F5F5F5"/>
<path d="M165.436 37.8015C165.671 37.8015 165.906 37.6902 166.06 37.4978C166.124 37.3908 166.253 37.2411 166.381 37.0487C166.702 36.6423 167.087 36.1034 167.283 35.8896C167.39 35.7399 167.455 35.5688 167.455 35.3934C167.455 34.9657 167.108 34.6235 166.68 34.6235C166.445 34.6235 166.231 34.7305 166.082 34.9015L164.833 36.5525C164.726 36.6851 164.662 36.8562 164.662 37.0273C164.662 37.455 165.008 37.8015 165.436 37.8015ZM159.213 50.851C162.472 50.851 172.775 46.0863 177.972 42.8014C178.186 42.6731 178.336 42.3908 178.336 42.1342C178.336 41.7279 177.972 41.3643 177.561 41.3643C177.433 41.3643 177.305 41.4071 177.155 41.4712C172.027 44.709 162.13 49.3027 159.213 49.3027C158.246 49.3027 157.882 48.9605 157.882 48.1222C157.882 46.8134 160.132 43.6141 163.417 40.248L163.438 40.2266C163.567 40.0726 163.631 39.9015 163.631 39.7091C163.631 39.3027 163.267 38.9349 162.861 38.9349C162.647 38.9349 162.45 39.0247 162.301 39.1744C158.524 43.0795 156.334 46.3429 156.334 48.1222C156.334 49.8416 157.408 50.851 159.213 50.851Z" fill="#F5F5F5"/>
<path d="M200.313 41.5787C200.142 41.5787 199.971 41.6429 199.843 41.7498C197.503 43.5933 190.442 48.1441 181.789 53.7044C178.979 55.5308 176.297 57.2459 173.765 58.8798C179.214 52.7592 182.499 48.6189 184.732 45.719C187.285 42.4128 187.824 41.536 187.824 40.5907C187.824 39.5599 186.772 38.9141 185.138 38.9141C179.924 38.9141 170.117 45.056 170.117 48.3623C170.117 49.5 170.822 50.2271 171.96 50.2271C173.483 50.2271 176.789 48.6189 182.734 45.0133C183.081 44.7951 183.273 45.0774 183.038 45.3982C180.784 48.3152 176.532 53.6831 168.654 62.2245L168.675 62.1817C144.531 77.9815 135.707 84.7651 135.707 87.6179C135.707 89.0551 136.738 90.0003 138.26 90.0003C141.952 90.0003 147.965 85.7061 156.87 76.7155C161.96 71.5829 166.164 67.186 169.663 63.405L169.62 63.4264C173.568 60.8516 177.884 58.0415 182.627 54.9919C191.28 49.4316 198.406 44.8636 200.788 42.9517C200.98 42.802 201.087 42.5881 201.087 42.3486C201.087 41.9209 200.745 41.5787 200.313 41.5787ZM181.921 43.6831C176.49 47.0064 173.119 48.6831 171.96 48.6831C171.703 48.6831 171.661 48.6403 171.661 48.3623C171.661 45.9799 181.019 40.4624 185.138 40.4624C185.484 40.4624 185.933 40.4624 186.276 40.5907C186.276 40.6976 186.254 40.8046 186.211 40.9329C186.126 40.997 186.019 41.0612 185.912 41.1253C185.159 41.6215 183.872 42.5026 181.921 43.6831ZM155.754 75.6419C147.319 84.1406 141.438 88.4563 138.26 88.4563C137.576 88.4563 137.251 88.1782 137.251 87.6179C137.251 85.7702 145.69 79.2689 164.082 67.1005C161.614 69.6753 158.846 72.5282 155.754 75.6419Z" fill="#F5F5F5"/>
<path d="M195.572 50.2481C195.871 50.2481 196.32 49.9914 197.565 49.0676C197.74 48.9393 197.933 48.8109 198.125 48.6612C201.902 45.9324 209.566 40.4192 212.462 40.4192C212.697 40.4192 212.804 40.5689 212.804 40.7614C212.804 41.1463 212.462 42.5877 212.12 44.0248C211.82 45.2909 211.517 46.5569 211.517 47.16C211.517 48.4688 212.419 49.26 213.899 49.26C217.462 49.26 223.583 46.7494 229.613 42.7802C229.849 42.6519 229.977 42.3909 229.977 42.1343C229.977 41.7066 229.635 41.3644 229.203 41.3644C229.053 41.3644 228.903 41.4072 228.775 41.4927C223.022 45.2695 217.141 47.716 213.899 47.716C213.258 47.716 213.065 47.5663 213.065 47.16C213.065 46.728 213.322 45.633 213.621 44.3884C213.963 42.9513 214.353 41.343 214.353 40.462C214.353 39.4739 213.664 38.8709 212.548 38.8709C210.122 38.8709 205.764 41.2746 198.189 46.7066C197.868 46.9204 197.783 46.7494 197.954 46.5141C199.776 44.0034 203.878 39.1745 207.761 36.2532C207.954 36.1035 208.061 35.8683 208.061 35.6331C208.061 35.2011 207.719 34.8589 207.291 34.8589C207.12 34.8589 206.945 34.923 206.816 35.0086C201.149 39.3242 194.904 47.6732 194.626 49.0034C194.477 49.692 194.904 50.2481 195.572 50.2481Z" fill="#F5F5F5"/>
<path d="M249.144 41.3643C248.973 41.3643 248.823 41.4071 248.695 41.514C242.018 46.3857 233.023 49.0247 230.234 49.0247C228.066 49.0247 226.992 48.4473 226.992 47.3737C226.992 46.3215 227.766 44.8416 229.054 43.4216C229.695 43.7039 230.405 43.8108 231.436 43.8108C233.408 43.8108 235.683 42.2197 235.683 40.804C235.683 39.7732 234.892 39.0889 233.69 39.0889C230.341 39.0889 225.448 44.0033 225.448 47.3737C225.448 49.4096 227.185 50.5687 230.234 50.5687C233.237 50.5687 242.702 47.8014 249.593 42.7587C249.785 42.6303 249.918 42.3694 249.918 42.1342C249.918 41.7065 249.571 41.3643 249.144 41.3643ZM234.139 40.804C234.139 41.2745 233.044 42.2625 231.436 42.2625C230.983 42.2625 230.641 42.2411 230.341 42.1984C231.565 41.2103 232.788 40.6329 233.69 40.6329C234.075 40.6329 234.139 40.6971 234.139 40.804Z" fill="#F5F5F5"/>
<path d="M248.198 60.766C254.143 60.766 271.081 49.7994 280.781 42.7592C280.974 42.6309 281.102 42.3914 281.102 42.1347C281.102 41.707 280.76 41.3648 280.328 41.3648C280.157 41.3648 280.007 41.4076 279.879 41.5145C270.2 48.512 253.673 59.2219 248.198 59.2219C247.231 59.2219 246.911 58.9225 246.911 58.0201C246.911 55.2698 251.761 50.5051 256.526 45.8045C260.734 41.6642 264.917 37.5411 264.917 35.0945C264.917 34.1707 264.083 33.4436 263.01 32.4769C262.685 32.2203 262.342 31.9166 262.022 31.5958C266.012 27.3272 268.373 24.0424 268.373 22.7122C268.373 21.8525 267.881 21.335 267.043 21.335C263.908 21.335 257.064 26.5959 257.064 29.0424C257.064 29.8807 257.706 30.565 259.682 31.8739C256.461 35.2229 252.535 38.8071 248.69 41.5145C248.476 41.6642 248.348 41.8995 248.348 42.1561C248.348 42.5881 248.69 42.9303 249.122 42.9303C249.293 42.9303 249.443 42.8875 249.571 42.7806C253.091 40.2913 257.364 36.4033 260.948 32.7122C262.706 33.8927 263.373 34.5385 263.373 35.0945C263.373 36.8781 259.639 40.5693 255.431 44.7096C250.666 49.4102 245.366 54.6283 245.366 58.0201C245.366 59.778 246.376 60.766 248.198 60.766ZM260.734 30.7361C259.361 29.8165 258.609 29.1921 258.609 29.0424C258.609 27.648 264.062 23.4607 266.295 22.9902C266.573 22.9474 266.744 23.0544 266.658 23.311C266.076 24.7054 262.774 28.5719 260.734 30.7361Z" fill="#F5F5F5"/>
<path d="M308.682 41.3643C308.511 41.3643 308.362 41.407 308.233 41.514C302.78 45.5901 294.217 48.8108 291.21 48.8108C289.666 48.8108 289.042 48.3617 289.042 47.2667C289.042 45.4618 290.569 43.2291 291.706 41.5995C292.391 40.6115 292.823 39.9656 292.823 39.4738C292.823 38.9605 292.412 38.5713 291.899 38.5713C291.424 38.5713 290.697 39.0247 288.272 40.7826C287.69 39.8373 286.92 39.4524 285.543 39.4524C282.151 39.4524 273.225 45.0341 273.225 48.4472C273.225 49.4994 273.995 50.1837 275.175 50.1837C277.968 50.1837 284.106 45.697 288.208 42.7372C288.507 42.5234 288.807 42.3052 289.085 42.0914C289.431 41.8348 289.581 41.9845 289.367 42.348C288.4 43.8963 287.498 45.6329 287.498 47.2667C287.498 49.2599 288.807 50.3548 291.21 50.3548C294.688 50.3548 303.682 46.6637 309.11 42.78C309.328 42.6303 309.457 42.3908 309.457 42.1342C309.457 41.7278 309.089 41.3643 308.682 41.3643ZM287.006 41.6851C281.617 45.5901 277.237 48.6397 275.175 48.6397C274.919 48.6397 274.769 48.5328 274.769 48.2719C274.769 46.2787 282.348 40.9964 285.543 40.9964C286.424 40.9964 286.681 41.1247 287.006 41.6851Z" fill="#F5F5F5"/>
<path d="M334.632 41.3644C334.504 41.3644 334.354 41.4072 334.226 41.4927C329.931 44.1317 324.307 45.2267 319.521 45.9324C320.659 44.4311 321.283 42.9513 321.283 41.728C321.283 40.5261 320.552 39.7947 319.371 39.7947C317.609 39.7947 314.671 41.343 310.398 44.5167C308.918 45.633 307.545 46.7921 306.407 47.7802C305.59 48.5115 305.526 48.1223 305.958 47.438C306.771 46.0864 307.908 44.4525 309.324 42.5235C329.482 29.4269 349.012 7.32262 349.012 2.31836C349.012 1.18064 348.477 0.539062 347.126 0.539062C342.789 0.539062 319.029 26.6382 308.208 41.4286L308.276 41.3644C308.229 41.4072 308.186 41.45 308.165 41.5141C304.666 46.3003 302.844 49.4996 302.844 50.8511C302.844 51.4072 303.272 51.8392 303.832 51.8392C304.239 51.8392 304.756 51.3644 305.269 50.8725L305.59 50.5902C306.856 49.4311 308.939 47.5449 311.343 45.7613C315.227 42.8657 317.934 41.2746 319.307 41.2746C319.628 41.2746 319.735 41.45 319.735 41.728C319.735 42.9085 318.789 44.6236 317.245 46.2361L316.732 46.3003C311.946 46.9418 309.435 47.3311 309.435 49.0034C309.435 50.1411 310.355 50.9581 311.664 50.9581C313.469 50.9581 315.872 49.7134 317.934 47.716C323.062 47.0274 329.931 45.9538 335.017 42.8016C335.256 42.6732 335.406 42.3909 335.406 42.1343C335.406 41.7066 335.06 41.3644 334.632 41.3644ZM347.126 2.08311C347.382 2.08311 347.468 2.21143 347.468 2.46806C347.468 6.44153 330.791 25.6074 312.245 38.6784C323.708 24.0206 343.905 2.08311 347.126 2.08311ZM310.979 49.1103C310.979 48.8109 312.63 48.4688 314.991 48.1223C313.747 48.9606 312.588 49.4097 311.664 49.4097C311.215 49.4097 310.979 49.2387 310.979 49.1103Z" fill="#F5F5F5"/>
<path d="M365.367 41.3644C365.239 41.3644 365.11 41.4072 364.961 41.4714C359.935 44.7092 350.645 49.2173 346.436 49.2173C345.106 49.2173 344.524 48.7682 344.524 47.7588C344.524 46.9632 344.935 45.9538 345.384 44.7947C345.833 43.6613 346.351 42.4123 346.351 41.3858C346.351 40.3978 345.748 39.752 344.785 39.752C342.745 39.752 338.968 42.391 333.173 47.8657C331.475 49.4739 329.867 51.0436 328.622 52.2669C328.323 52.5663 328.104 52.5449 328.408 52.0958C329.781 49.8417 332.121 46.6211 335.252 42.6519C356.051 29.5125 375.628 7.34401 375.628 2.31836C375.628 1.18064 374.939 0.539062 373.737 0.539062C368.245 0.539062 325.487 48.9393 325.487 55.1197C325.487 55.6801 325.915 56.1078 326.475 56.1078C326.924 56.1078 327.356 55.7014 329.696 53.3618C329.952 53.1052 330.23 52.8443 330.53 52.5663C331.625 51.4927 332.891 50.2695 334.246 48.982C338.968 44.5167 342.553 41.7922 344.353 41.3644C344.631 41.3003 344.807 41.4714 344.764 41.7708C344.653 42.4808 344.332 43.2934 343.968 44.1959C343.515 45.355 342.98 46.6638 342.98 47.7588C342.98 49.6493 344.268 50.7656 346.436 50.7656C350.987 50.7656 360.666 46.0864 365.795 42.7802C366.013 42.6305 366.141 42.391 366.141 42.1343C366.141 41.728 365.773 41.3644 365.367 41.3644ZM373.737 2.08311C373.994 2.08311 374.084 2.16866 374.084 2.38251C374.084 6.44153 357.424 25.5647 338.408 38.7212C353.027 20.8213 371.077 2.08311 373.737 2.08311Z" fill="#F5F5F5"/>
<path d="M370.196 37.8015C370.431 37.8015 370.666 37.6902 370.82 37.4978C370.884 37.3908 371.013 37.2411 371.141 37.0487C371.462 36.6423 371.847 36.1034 372.043 35.8896C372.15 35.7399 372.215 35.5688 372.215 35.3934C372.215 34.9657 371.868 34.6235 371.44 34.6235C371.205 34.6235 370.991 34.7305 370.842 34.9015L369.593 36.5525C369.486 36.6851 369.422 36.8562 369.422 37.0273C369.422 37.455 369.768 37.8015 370.196 37.8015ZM363.973 50.851C367.232 50.851 377.535 46.0863 382.732 42.8014C382.946 42.6731 383.096 42.3908 383.096 42.1342C383.096 41.7279 382.732 41.3643 382.321 41.3643C382.193 41.3643 382.065 41.4071 381.915 41.4712C376.787 44.709 366.89 49.3027 363.973 49.3027C363.006 49.3027 362.642 48.9605 362.642 48.1222C362.642 46.8134 364.892 43.6141 368.177 40.248L368.198 40.2266C368.327 40.0726 368.391 39.9015 368.391 39.7091C368.391 39.3027 368.027 38.9349 367.621 38.9349C367.407 38.9349 367.21 39.0247 367.061 39.1744C363.284 43.0795 361.094 46.3429 361.094 48.1222C361.094 49.8416 362.168 50.851 363.973 50.851Z" fill="#F5F5F5"/>
</svg>
